<?xml version="1.0" encoding="utf-8"?>
<!-- Generator: Adobe Illustrator 18.1.1, SVG Export Plug-In . SVG Version: 6.00 Build 0)  -->
<svg version="1.1" id="Layer_1" xmlns="http://www.w3.org/2000/svg" xmlns:xlink="http://www.w3.org/1999/xlink" x="0px" y="0px"
	 viewBox="211.9 29.6 510.6 479.9" enable-background="new 211.9 29.6 510.6 479.9" xml:space="preserve">
<path fill="#571824" d="M366.7,334.3l102.8,85.4l-0.3,0.1L366.7,334.3z M469.4,399.4l-92.8-77.1l92.6,77.3L469.4,399.4z
	 M722.5,197.9v311.6H211.9V197.8l54.5-35.8V76.8h130.3l71.9-47.1l71.1,47.1h127.9v84.9L722.5,197.9z M667.8,231.8l34-28.8l-34-22.6
	V231.8z M425.1,76.8H512l-43.1-28.7L425.1,76.8z M281.9,243.4l94.6,78.9l92.6,77.3l0.1-0.1l183-155.9V170v-18.6V92.3h-89.1h-28.1
	H401.3h-28.2h-91.3v59.8v18.5v72.8H281.9z M232.6,202.8l33.8,28.1v-50.4L232.6,202.8z M707,218.8L469.6,419.7l-0.1-0.1l-102.7-85.2
	L227.4,218.6v275.5h479.7L707,218.8L707,218.8z M466,317.4c-40,0-74-29.4-74-76.2c0-50.4,35-93.8,89.2-93.8
	c42.5,0,71.2,29.8,71.2,70.6c0,36.6-20.5,58.2-43.6,58.2c-9.8,0-18.8-6.6-18-21.6h-1c-8.6,14.5-19.8,21.6-34.4,21.6
	c-14.2,0-26.4-11.5-26.4-30.9c0-30.3,23.9-57.9,57.9-57.9c10.5,0,19.8,2.2,26.1,5.2l-8.3,44.3c-3.7,18.6-0.7,27.2,7.4,27.3
	c12.4,0.3,26.4-16.4,26.4-44.8c0-35.5-21.3-60.9-59.2-60.9c-39.9,0-73.3,31.6-73.3,81.1c0,40.8,26.6,66,62.8,66
	c13.9,0,26.9-3,36.9-8.6l3.8,10.5C496.2,314.8,482.4,317.4,466,317.4z M496.2,202.1c-2.5-0.7-6.6-1.8-12.3-1.8
	c-21.6,0-38.9,20.2-38.9,44c0,10.8,5.3,18.6,16.1,18.6c14.2,0,27.2-18,29.8-33.2L496.2,202.1z"/>
</svg>
