<?xml version="1.0" encoding="utf-8"?>
<!-- Generator: Adobe Illustrator 18.1.1, SVG Export Plug-In . SVG Version: 6.00 Build 0)  -->
<svg version="1.1" id="Capa_1" xmlns="http://www.w3.org/2000/svg" xmlns:xlink="http://www.w3.org/1999/xlink" x="0px" y="0px"
	 viewBox="-104 25.9 430.1 430.1" enable-background="new -104 25.9 430.1 430.1" xml:space="preserve">
<g>
	<path id="LinkedIn" fill="#571824" d="M326.1,287.4v159h-92.2V298.1c0-37.3-13.3-62.7-46.7-62.7c-25.5,0-40.6,17.1-47.3,33.7
		c-2.4,5.9-3.1,14.2-3.1,22.5v154.9H44.6c0,0,1.2-251.3,0-277.3h92.2v39.3c-0.2,0.3-0.4,0.6-0.6,0.9h0.6v-0.9
		c12.3-18.9,34.1-45.8,83.1-45.8C280.6,162.6,326.1,202.2,326.1,287.4z M-51.8,35.4c-31.5,0-52.2,20.7-52.2,47.9
		c0,26.6,20,47.9,51,47.9h0.6c32.2,0,52.2-21.3,52.2-47.9C-0.9,56.1-20.3,35.4-51.8,35.4z M-98.5,446.4h92.2V169.1h-92.2V446.4z"/>
</g>
</svg>
