<?xml version="1.0" encoding="utf-8"?>
<!-- Generator: Adobe Illustrator 18.1.1, SVG Export Plug-In . SVG Version: 6.00 Build 0)  -->
<svg version="1.1" id="Layer_1" xmlns="http://www.w3.org/2000/svg" xmlns:xlink="http://www.w3.org/1999/xlink" x="0px" y="0px"
	 viewBox="294.8 40 422.8 480" enable-background="new 294.8 40 422.8 480" xml:space="preserve">
<title>87all</title>
<rect x="370.1" y="184.3" fill="#571824" width="53.4" height="12.2"/>
<rect x="370.1" y="254.1" fill="#571824" width="152.5" height="12.2"/>
<rect x="370.1" y="324.1" fill="#571824" width="152.5" height="12.2"/>
<path fill="#571824" d="M474,520h243.6v-27.3c0-57.9-47.1-104.8-105-105H579c-35.7,0-68.8,18.2-88.1,48.2H306.9V52.2h198.2v110.5
	h104.8v70.7c-39.6-8.1-78.3,17.5-86.4,57.2c-8.1,39.6,17.5,78.3,57.2,86.4s78.3-17.5,86.4-57.2c7.1-34.9-12-69.9-45.2-82.9v-87.2
	L514.4,40H294.8v408h189.3c-6.6,13.9-10.1,29.2-10.1,44.7V520z M656.5,304.8c0,33.5-27.2,60.6-60.6,60.6s-60.6-27.2-60.6-60.6
	s27.2-60.6,60.6-60.6C629.3,244.2,656.5,271.3,656.5,304.8z M516.9,60.2l88.9,90.5h-88.6L516.9,60.2z M579,399.8h33.6
	c51.3,0,92.8,41.5,92.8,92.8v15.2H486.1v-15.2C486.1,441.4,527.7,399.8,579,399.8z"/>
</svg>
